Coordinates
version=1
nRows=49
nColumns=12
inDegrees=yes

Units are S.I. units (second, meters, Newtons, ...)
Angles are in degrees

endheader
time	SC_y	SC_z	SC_x	AC_y	AC_z	AC_x	GH_y	GH_z	GH_yy	EL_x	PS_y
       0.0              -30.82          2.164          79.29          69.62        -0.5586         -2.636         -59.45          69.47         -96.74          106.7          114.6
   0.02574              -30.82          2.169          79.28          69.62        -0.5576         -2.635         -59.45          69.46         -96.73          106.7          114.6
   0.05147              -30.83          2.175          79.27          69.62        -0.5566         -2.635         -59.44          69.45         -96.71          106.7          114.6
   0.07721              -30.83          2.181          79.27          69.62        -0.5555         -2.634         -59.44          69.44          -96.7          106.7          114.6
    0.1029              -30.84          2.187          79.26          69.62        -0.5543         -2.633         -59.43          69.42         -96.68          106.7          114.6
    0.1287              -30.84          2.194          79.25          69.62        -0.5531         -2.632         -59.43          69.41         -96.66          106.7          114.6
    0.1544              -30.85          2.201          79.24          69.62        -0.5518         -2.631         -59.42           69.4         -96.64          106.7          114.6
    0.1802              -30.85          2.209          79.23          69.61        -0.5504          -2.63         -59.41          69.38         -96.62          106.6          114.6
    0.2059              -30.86          2.217          79.23          69.61        -0.5489         -2.628         -59.41          69.37          -96.6          106.6          114.6
    0.2316              -30.86          2.226          79.22          69.61        -0.5472         -2.627          -59.4          69.35         -96.57          106.6          114.6
    0.2574              -30.87          2.236           79.2          69.61        -0.5455         -2.626         -59.39          69.33         -96.55          106.6          114.7
    0.2831              -30.88          2.246          79.19          69.61        -0.5436         -2.624         -59.38          69.32         -96.52          106.6          114.7
    0.3088              -30.88          2.257          79.18          69.61        -0.5416         -2.623         -59.38          69.29         -96.49          106.6          114.7
    0.3346              -30.89          2.269          79.17          69.61        -0.5394         -2.621         -59.37          69.27         -96.46          106.5          114.7
    0.3603               -30.9          2.282          79.15          69.61        -0.5371         -2.619         -59.36          69.25         -96.42          106.5          114.7
    0.3861              -30.91          2.297          79.13          69.61        -0.5345         -2.617         -59.35          69.22         -96.38          106.5          114.7
    0.4118              -30.92          2.312          79.12          69.61        -0.5317         -2.615         -59.33          69.19         -96.34          106.4          114.7
    0.4375              -30.93          2.329           79.1          69.61        -0.5287         -2.612         -59.32          69.16         -96.29          106.4          114.7
    0.4633              -30.95          2.347          79.08          69.61        -0.5254          -2.61         -59.31          69.13         -96.24          106.4          114.7
     0.489              -30.96          2.367          79.05           69.6        -0.5218         -2.607         -59.29          69.09         -96.19          106.3          114.7
    0.5147              -30.98          2.389          79.03           69.6        -0.5178         -2.604         -59.27          69.05         -96.13          106.3          114.7
    0.5405              -30.99          2.413           79.0           69.6        -0.5134           -2.6         -59.25          69.01         -96.06          106.2          114.7
    0.5662              -31.01           2.44          78.97           69.6        -0.5086         -2.596         -59.23          68.96         -95.99          106.2          114.7
    0.5919              -31.03          2.469          78.94           69.6        -0.5032         -2.592         -59.21          68.91         -95.91          106.1          114.7
    0.6177              -31.06          2.502           78.9          69.59        -0.4973         -2.588         -59.18          68.84         -95.82          106.1          114.7
    0.6434              -31.08          2.539          78.86          69.59        -0.4907         -2.582         -59.16          68.78         -95.72          106.0          114.7
    0.6692              -31.11           2.58          78.81          69.59        -0.4832         -2.576         -59.12           68.7         -95.61          105.9          114.7
    0.6949              -31.14          2.626          78.76          69.59        -0.4748          -2.57         -59.09          68.62         -95.48          105.8          114.7
    0.7206              -31.18          2.678           78.7          69.58        -0.4654         -2.562         -59.05          68.52         -95.34          105.7          114.8
    0.7464              -31.22          2.737          78.63          69.58        -0.4546         -2.554          -59.0          68.41         -95.18          105.6          114.8
    0.7721              -31.27          2.805          78.55          69.57        -0.4424         -2.544         -58.95          68.29         -94.99          105.4          114.8
    0.7978              -31.32          2.883          78.46          69.57        -0.4283         -2.533         -58.88          68.14         -94.78          105.3          114.8
    0.8236              -31.38          2.972          78.36          69.56        -0.4121          -2.52         -58.81          67.98         -94.54          105.1          114.8
    0.8493              -31.46          3.076          78.24          69.55        -0.3932         -2.505         -58.73          67.79         -94.25          104.9          114.9
     0.875              -31.54          3.198           78.1          69.54        -0.3711         -2.488         -58.64          67.56         -93.92          104.6          114.9
    0.9008              -31.64          3.342          77.94          69.53        -0.3451         -2.467         -58.52           67.3         -93.53          104.3          114.9
    0.9265              -31.76          3.513          77.74          69.52        -0.3142         -2.442         -58.39          66.98         -93.06          104.0          115.0
    0.9523              -31.91          3.717          77.51          69.51        -0.2771         -2.413         -58.23          66.61          -92.5          103.6          115.0
     0.978              -32.08          3.965          77.22          69.49        -0.2322         -2.378         -58.03          66.15         -91.82          103.1          115.1
     1.004              -32.29          4.267          76.87          69.47        -0.1774         -2.334          -57.8           65.6          -91.0          102.4          115.1
     1.029              -32.55           4.64          76.45          69.44        -0.1098          -2.28          -57.5          64.91         -89.98          101.7          115.2
     1.055              -32.88          5.106          75.91          69.41       -0.02548         -2.214         -57.14          64.05         -88.71          100.7          115.3
     1.081              -33.29          5.692          75.24          69.37        0.08076         -2.129         -56.68          62.97          -87.1          99.54          115.5
     1.107              -33.81          6.437          74.39          69.32         0.2158         -2.022         -56.09           61.6         -85.07          98.02          115.7
     1.132              -34.48          7.391          73.29          69.25         0.3887         -1.885         -55.34          59.85         -82.46          96.07          115.9
     1.158              -35.33          8.615          71.89          69.16         0.6105          -1.71         -54.38          57.59         -79.11          93.57          116.2
     1.184              -36.43          10.18           70.1          69.05         0.8939         -1.485         -53.15          54.72         -74.84          90.38          116.6
      1.21              -37.81          12.15          67.84          68.91           1.25         -1.203         -51.61           51.1         -69.47          86.36          117.0
     1.235              -39.48          14.54          65.09          68.74          1.684        -0.8588         -49.73          46.69         -62.92          81.47          117.6
